<svg width="512" height="188" viewBox="0 0 512 188" fill="none" xmlns="http://www.w3.org/2000/svg">
<g clip-path="url(#clip0_1233_27)">
<mask id="mask0_1233_27" style="mask-type:luminance" maskUnits="userSpaceOnUse" x="0" y="0" width="512" height="188">
<path d="M512 0.335938H0V187.543H512V0.335938Z" fill="white"/>
</mask>
<g mask="url(#mask0_1233_27)">
<path d="M93.8009 187.217C145.316 187.217 187.077 145.456 187.077 93.9405C187.077 42.4254 145.316 0.664062 93.8009 0.664062C42.2857 0.664062 0.524414 42.4254 0.524414 93.9405C0.524414 145.456 42.2857 187.217 93.8009 187.217Z" fill="#0089FF"/>
<path d="M106.219 57.0447H61.9886C57.9117 57.0447 54.6074 60.349 54.6074 64.4258V123.458C54.6074 127.535 57.9117 130.839 61.9886 130.839H106.219C110.296 130.839 113.6 127.535 113.6 123.458C113.6 119.381 110.296 116.077 106.219 116.077H69.3641V101.32H106.219C110.296 101.32 113.6 98.016 113.6 93.9392C113.6 89.8623 110.296 86.558 106.219 86.558H69.3641V71.8014H106.219C110.296 71.8014 113.6 68.497 113.6 64.4202C113.6 60.3434 110.296 57.0391 106.219 57.0391V57.0447Z" fill="white"/>
<path d="M152.108 92.2967L132.311 72.499C130.844 71.0329 128.341 72.0704 128.341 74.1455V113.73C128.341 115.799 130.844 116.837 132.311 115.376L152.108 95.5897C153.016 94.6819 153.016 93.2102 152.108 92.3023V92.2967Z" fill="white"/>
<path d="M290.095 76.0889C286.948 69.8412 282.77 65.099 277.554 61.8567C272.338 58.6144 266.632 56.9961 260.435 56.9961C253.296 56.9961 246.981 58.5693 241.483 61.7157C235.985 64.8621 231.666 69.2096 228.519 74.7469C225.373 80.2898 223.8 86.6785 223.8 93.9074C223.8 101.136 225.328 107.531 228.378 113.068C231.429 118.611 235.636 122.953 240.987 126.099C246.338 129.246 252.49 130.819 259.442 130.819C264.985 130.819 269.914 130.063 274.239 128.563C278.558 127.063 282.291 124.876 285.437 122.011C288.584 119.147 291.144 115.741 293.117 111.794L276.488 105.315C275.175 107.948 273.291 110.085 270.85 111.726C268.408 113.372 265.262 114.19 261.41 114.19C258.213 114.19 255.23 113.508 252.462 112.149C249.687 110.79 247.438 108.816 245.701 106.234C244.252 104.08 243.417 101.61 243.175 98.8357H294.803C294.803 89.9152 293.23 82.331 290.084 76.0777L290.095 76.0889ZM244.178 85.0377C244.426 82.4382 245.261 80.2955 246.699 78.6264C248.436 76.6077 250.528 75.1303 252.969 74.1887C255.411 73.2526 257.711 72.779 259.871 72.779C262.031 72.779 264.258 73.2526 266.564 74.1887C268.865 75.1303 270.816 76.6077 272.412 78.6264C273.731 80.2955 274.498 82.4382 274.724 85.0377H244.178Z" fill="#98A2B3"/>
<path d="M357.698 60.385C353.745 58.1238 348.992 56.9961 343.437 56.9961C337.883 56.9961 333.389 58.3888 329.386 61.1631C326.752 62.9901 324.519 65.3527 322.659 68.2398L321.83 56.9961H304.321V130.83H322.957V92.3004C322.957 86.3684 324.249 81.9025 326.843 78.8858C329.431 75.8747 333.124 74.4142 337.928 74.5101C340.562 74.5101 342.868 75.1021 344.847 76.275C346.826 77.4535 348.354 79.3594 349.437 81.9927C350.52 84.6317 351.061 88.3476 351.061 93.1462V130.83H369.697V89.3344C369.787 81.8066 368.801 75.6604 366.731 70.9069C364.662 66.1534 361.651 62.6461 357.692 60.385H357.698Z" fill="#98A2B3"/>
<path d="M420.157 112.973C419.029 113.396 417.991 113.61 417.05 113.61C414.507 113.61 412.578 112.832 411.259 111.281C409.939 109.73 409.28 107.447 409.28 104.436V72.8246H426.929V57.0079H409.28V40.8867H390.643V57.0079H379.208V72.8246H390.643V108.529C390.643 115.685 392.64 121.194 396.643 125.051C400.641 128.914 406.55 130.842 414.366 130.842C417.095 130.842 419.847 130.301 422.627 129.218C425.401 128.135 427.921 126.748 430.182 125.051L423.687 111.072C422.463 111.918 421.284 112.555 420.157 112.978V112.973Z" fill="#98A2B3"/>
<path d="M458.336 70.1569V56.9961H439.7V130.83H458.336V90.7441C458.336 87.0732 459.515 84.0621 461.866 81.7051C464.218 79.3538 467.302 77.6565 471.114 76.6246C474.926 75.5871 478.997 75.0683 483.327 75.0683V56.9961C478.247 56.9961 473.375 58.2197 468.712 60.6669C464.59 62.8322 461.127 66.0012 458.331 70.1569H458.336Z" fill="#98A2B3"/>
<path d="M511.474 56.9961H492.838V130.83H511.474V56.9961Z" fill="#98A2B3"/>
<path d="M502.154 51.8921C504.686 51.8921 506.874 50.973 508.712 49.1348C510.55 47.2966 511.469 45.1087 511.469 42.5769C511.469 40.0451 510.55 37.8573 508.712 36.019C506.874 34.1808 504.686 33.2617 502.154 33.2617C499.622 33.2617 497.536 34.1808 495.652 36.019C493.769 37.8573 492.833 40.0451 492.833 42.5769C492.833 45.1087 493.769 47.2966 495.652 49.1348C497.53 50.973 499.701 51.8921 502.154 51.8921Z" fill="#98A2B3"/>
</g>
</g>
<defs>
<clipPath id="clip0_1233_27">
<rect width="512" height="188" fill="white"/>
</clipPath>
</defs>
</svg>
