<svg id="Layer_1" data-name="Layer 1" xmlns="http://www.w3.org/2000/svg" viewBox="0 0 1381 448"><defs><style>.cls-1,.cls-3{fill:#fff;}.cls-1,.cls-2{fill-rule:evenodd;}.cls-2{fill:#df1f26;}</style></defs><path class="cls-1" d="M1333.65,240.11c.67,26.21-2.77,27.87,21.43,27.4,1.14,0,2.32,0,3.48,0,8.69-1,10.74,9,0,8.16h-75c-8.95,1.22-9.47-9.47,0-8.16,1.06,0,2.13-.1,3.18,0,21,1.78,17.25-10.7,17.25-27.4V74.8c0-26.21,2.51-27.73-13.39-27.73h-3.18c-6.44,0-7.47-8.45,0-8.17h65.91c8.51,0,8.26,9.67,0,8.17h-3.18c-19.7-.18-16.53,3.68-16.53,27.73V240.11Z"/><path class="cls-2" d="M396.16,41.36C416.36,43.3,421.77,56,438.53,56c9.4,0,11.86-5.79,19.7-13,7.33-5.89,17-.87,8.12,8.48-11.43,12.08-18.24,18.87-36,21.77-18.68,3-25.74-12.38-42.44-12.87-11.27-.31-16.6,16.47-23.77,10.26-7.87-6.76,15.66-30.76,32-29.2Z"/><path class="cls-2" d="M596.37,43c19.52,1.93,24.76,14.59,41,14.58,9.07,0,11.46-5.79,19-13,7.1-5.88,16.43-.87,7.87,8.49-11.07,12.07-17.65,18.87-34.76,21.76-18.07,3-24.88-12.38-41-12.86-10.88-.32-16,16.46-23,10.26-7.59-6.79,15.13-30.78,30.91-29.2Z"/><path class="cls-1" d="M912.94,240.11c0,17.73.74,27.4,19.9,27.4h3.31c7.93-.49,7.17,8.82,0,8.16H860c-9.38,1.22-5.64-9.39,0-8.16h3.33c19.88,0,20.27-9.52,20.27-27.4V48.49H842.29c-19.9,0-40,16.12-60,44.16-6,10.4-12.86,5.08-8.64-2.1,13.13-24.22,20.71-38.71,33.83-62.94,1.46-5.78,9.88-6,9-.69-2.79,12.56-.61,12,10.08,12H970.28c12.49,0,12.94-1,9.19-9.87-5.14-7.87,6.2-11.81,10.1.23,10.3,20,20.79,39.78,31.1,59.81,7,10.89-6.56,11.91-7.67,5-11.33-18.62-29-45.54-58-45.54H912.94V240.11Z"/><path class="cls-1" d="M723.14,240.11c.67,26.21-2.79,27.87,21.42,27.4,1.15,0,2.31,0,3.47,0,8.68-1,10.75,9,0,8.16h-75c-8.94,1.22-9.46-9.47,0-8.16,1,0,2.12-.1,3.17,0,21,1.78,17.26-10.7,17.26-27.4V74.8c0-26.21,2.5-27.73-13.4-27.73h-3.16c-6.46,0-7.48-8.45,0-8.17h65.9c8.51,0,8.25,9.67,0,8.17-1.06,0-2.12,0-3.18,0C720.17,46,723.14,66,723.14,74.8V240.11Z"/><path class="cls-1" d="M38.75,276.14c-6.15-.09-6.15-5.64,0-7.44H44.9c7.5,0,10-1.56,12.53-8.14l7.47-23.32,51.77-159.5c1.44-4.46,11-30.67,4.69-30.88l-15.08-.5c-5.19-1.43-7-7.71,4.5-7.46h40.48l42,84.82L225,61.55c5.08-9.89,7.3-15.77-1.69-16-3.85-3.54-1.72-7,3.67-6.68h60.13c5.53-.25,5.73,8.62-1.39,7.46l-17.12,0c-10.77,0-1.65,23.08,0,28.73l45,153.75c4.79,16.38,11.07,32,14,35.76s5,3.76,13.72,3.76h1.44q6.17,3.74,0,7.46c-28,0-48.47.22-76.46.22-8.42-.35-8-7.62,0-7.46h2.88c8.63,0,13,.91,18.17-2,5.59-3.17,2.16-13.64-3.88-34.12l-48-162.66-49.66,97.49h-9.14L133,74.67,73.76,258.43c-3.91,12.18.17,9.76,19.77,10.27,8.36-.6,8.36,9.06,0,7.44Z"/><path class="cls-1" d="M372.32,276c-9.29,1.25-9-8,0-7.82,8.09-.12,15.13-1,19.09-4.1s9.37-12.18,15.06-25.19l77-176.21A62,62,0,0,0,487,53.05c.75-3.34-4.77-5.55-8.26-5.7s-6.88-9.2,6.35-8.75h50.22c8.43-1.57,10.28,8-.54,7.49-22.9-2.42-15.13,7.21-9.2,18.35l80.85,171.87c6.09,12.93,8.64,21.38,12.2,25.06s4.91,5.91,11.16,5.91h3.17c8,.48,8.33,8,0,8.39H564.75c-13.82,2.16-14.56-8.62-1.28-8.62,19,0,24-.73,12-25.77l-55.6-116.37H469L419.3,239.68c-6.74,15.56-13.07,27.37,5.24,27.37,1.68,0,10.84,1,15.4.81a4.1,4.1,0,0,1,.85,0c8.1-.47,9.66,8.79,0,7.81-24,0-44.5.28-68.47.28ZM475.93,110.71h38.46L494.16,68.37l-18.23,42.34Z"/><path class="cls-1" d="M1234.66,292.54C1206.87,255.1,1182,189,1160.29,144c28.45-19.39,45.92-36.93,49.34-54.06,4.33-21.61-14.11-41.27-45.78-49-18.75-4.6-24.6-2-56.9-2h-53.71c-9.29-1.08-9.29,9.78,0,8.17,1.07,0,2.12,0,3.19,0,12.47-.17,12.09.49,12.09,27.73V240.11c0,17.5.9,27.58-14.89,27.4-1.06,0-2.11,0-3.17,0-8.12-1.51-9.53,9.25,0,8.16H1114c7.16.57,6.36-8.79,0-8.16-1.4,0-2.79-.1-4.18,0-11.69.75-12.3-9.42-12.3-27.4V48.32c23.58-2,60.47-2.12,72.43,20.1,10.57,19.67,3.23,40.93-12.23,58.58-15.31,17.48-38.6,32.21-59.57,39.59a6.78,6.78,0,0,0,1.63,5.67c9.59-2,29.06-9.89,31.63-10.52,2.78-.68,19,31.83,39.8,65.46,23.52,38.08,54.14,77.89,60.62,77.54,6.21-.34,9-.83,15.22-1A38.22,38.22,0,0,1,1234.66,292.54Z"/><path class="cls-3" d="M34.61,369q-.27-9,4.06-12.81t13.36-4q9.21,0,13.36,3.37t4.14,10.49v31a27.14,27.14,0,0,0,1,8H59.14a17.51,17.51,0,0,1-.82-4.11,6.8,6.8,0,0,0,.18-1.64q-4.2,7-11,7a21.16,21.16,0,0,1-5.75-.92q-7.47-2.46-7.47-13.22c-.19-4.2.5-7.41,2-9.66a21.3,21.3,0,0,1,6.7-6,49,49,0,0,1,7-3.33,24.09,24.09,0,0,0,6-3.06,5.11,5.11,0,0,0,1.82-4.1c0-3.16-2-4.74-5.93-4.74-2.43.12-3.89.58-4.37,1.37-1.1,1.33-1.64,3.43-1.64,6.29Zm23,9c-1.76,1.1-3.59,2.27-5.47,3.51a18.81,18.81,0,0,0-4.52,4.06,10,10,0,0,0-2,5.29c.37,3.9,2.31,6.08,5.84,6.57a10.69,10.69,0,0,0,2.55-.55,7.85,7.85,0,0,0,2.15-1.82,9.43,9.43,0,0,0,1.09-3.84,48.94,48.94,0,0,0,.32-7.47Z"/><path class="cls-3" d="M118.14,359.19l-.37-2.46V336.58h11.77v68.57H117.77v-5.84a10.45,10.45,0,0,1-4.1,5.34,11.59,11.59,0,0,1-6.57,2,13.75,13.75,0,0,1-3.83-.55q-8.47-2.73-8.48-18.15V370.22q0-16.05,9.76-17.78c.55-.06,1-.11,1.46-.13s.94-.05,1.55-.05Q114.85,352.26,118.14,359.19Zm-.37,11.22a12.53,12.53,0,0,0-1.5-6.57,4.72,4.72,0,0,0-4.24-2.46q-3.19,0-4.24,2.28a16.79,16.79,0,0,0-1.05,6.75v17.5a13.93,13.93,0,0,0,1.5,7q1.52,2.55,3.79,2.55,5.75,0,5.74-9.58Z"/><path class="cls-3" d="M150.78,353.72h12.77l5.56,30.91,1.28,13,1.18-13L177,353.72h12.68l-11.95,51.43H162.91Z"/><path class="cls-3" d="M209.42,370q0-17.78,18.14-17.78,7.75.09,11.49,2.92a12.65,12.65,0,0,1,4.83,7.34,53.73,53.73,0,0,1,1.1,12.17v7.12H221.36v7.84c0,5.05,1.88,7.65,5.65,7.84a4.79,4.79,0,0,1,1.46-.19q4.83-.54,4.47-9.57H244.8q.45,8.67-3.47,13.63c-2.61,3.32-6.66,5-12.13,5.07a30.38,30.38,0,0,1-9.21-1q-4.38-1.19-7.47-6t-3.1-14.09Zm11.94,2.74h11.76v-5.2q0-6.19-5.92-6.2t-5.84,6.2Z"/><path class="cls-3" d="M293.49,352.81v13.86h-2.28a11.66,11.66,0,0,0-6.66,1.78q-2.64,1.77-2.64,7.34v29.36H270.06V353.72h11.39v9.57Q285.29,352.82,293.49,352.81Z"/><path class="cls-3" d="M332.06,353.72v8.48h-5v30.27c0,1.7.27,2.73.82,3.06s1.94.5,4.19.5v9.3c-.49,0-1.43.06-2.83.18s-2.58.18-3.55.18q-10.57,0-10.58-8.75V362.2h-4.74v-8.48h4.74V339.4h11.95v14.32Z"/><path class="cls-3" d="M355.4,336.58h11.77v10.85H355.4Zm0,17.14h11.77v51.43H355.4Z"/><path class="cls-3" d="M414,369.31q.45-7.85-5.29-7.84-4.94,0-5.2,4.11a5.33,5.33,0,0,0,1.82,3.73,82.39,82.39,0,0,0,8.53,6.11,46.48,46.48,0,0,1,9.3,7.52,12.67,12.67,0,0,1,2.78,8.53,24.07,24.07,0,0,1-.55,4.93q-2.18,10.22-17.41,10.21A17,17,0,0,1,395.62,402q-4.85-4.65-4.11-13.77h11.95q-1.18,9.48,5.2,9.85,5.1-.65,5.1-5a6,6,0,0,0-1.91-4.83q-.56-.46-5.79-3.88a69.11,69.11,0,0,1-8.76-6.61,14.86,14.86,0,0,1-4.51-6.56,26.59,26.59,0,0,1-1.09-6q.09-6.75,5.24-9.72a24.22,24.22,0,0,1,12.26-3q16.88,0,16.87,16.87Z"/><path class="cls-3" d="M449.69,336.58h11.76v10.85H449.69Zm0,17.14h11.76v51.43H449.69Z"/><path class="cls-3" d="M499.93,353.72v5.84a8.87,8.87,0,0,1,4.2-5.25,13.22,13.22,0,0,1,6.75-1.87,12.18,12.18,0,0,1,8.3,3c2.24,2,3.37,4.79,3.37,8.44v41.31H510.88V370a11.61,11.61,0,0,0-1.1-5.75,4.39,4.39,0,0,0-3.92-1.91,4.54,4.54,0,0,0-4.19,1.83q-1.74,2.09-1.74,6.2v34.74H488.08V353.72Z"/><path class="cls-3" d="M582,353.72v49.61a28.32,28.32,0,0,1-1.59,10.25,12.35,12.35,0,0,1-5.61,6.34q-4.38,2.47-12,2.47a18.91,18.91,0,0,1-10.44-2.74q-4.25-2.75-4.51-8.66h11.85c0,2.19,1.92,3.15,5.75,2.91q5.19-.36,5.19-7.47v-7a10.25,10.25,0,0,1-4.37,5.25,12.92,12.92,0,0,1-6.66,1.78,12.68,12.68,0,0,1-6.66-1.83Q547.26,401,547.26,388V373.23q0-11.85,2.78-16.09a10.5,10.5,0,0,1,8.44-4.7h1.91c4.87,0,8.08,2.31,9.67,6.94v-5.66Zm-22.8,19.06v15.41q0,9.3,5.29,9.3c3.71-.37,5.57-3.4,5.57-9.12V371q0-4.84-1.51-7.17a4.63,4.63,0,0,0-4.06-2.32c-2.12-.12-3.54.6-4.23,2.14S559.2,368.22,559.2,372.78Z"/><path class="cls-3" d="M640.36,353.72H653l4.1,31.46,1.1,11.22,1.45-11.22,4.75-31.46h10L680,385.18l1.09,11.22,1.28-11.22,4.1-31.46h11.86l-10.49,51.43h-13l-4.1-22.61-1.46-11.22-1.28,11.22-3.73,22.61H651Z"/><path class="cls-3" d="M737.66,352.26q7.56,0,11.35,2.78a13.42,13.42,0,0,1,5,8.21,72.31,72.31,0,0,1,1.23,15.18v8.94q0,9.12-3.69,14.27t-13.36,5.15c-5.48,0-9.51-.84-12.13-2.51s-4.37-4.42-5.25-8.25-1.32-9.33-1.32-16.5a77.48,77.48,0,0,1,1.28-16A13.57,13.57,0,0,1,726,355Q729.91,352.27,737.66,352.26Zm5.84,19.6q0-6.11-1.1-8.29t-4.74-2.19q-3.64,0-4.93,2.32c-.84,1.56-1.27,4.09-1.27,7.62V390c0,4.81,1.95,7.29,5.84,7.48,2.31,0,3.92-.57,4.83-1.69s1.37-3.05,1.37-5.79Z"/><path class="cls-3" d="M803.59,352.81v13.86h-2.28a11.6,11.6,0,0,0-6.65,1.78q-2.65,1.77-2.65,7.34v29.36H780.15V353.72h11.4v9.57Q795.39,352.82,803.59,352.81Z"/><path class="cls-3" d="M823.65,336.76h11.76v31.91c0,1.34,0,2.39,0,3.15s-.07,1.54-.13,2.33h.18l11.22-20.43h13.13l-13.13,20.61,12.58,30.82H846.08l-7.48-21-3.19,5.28v15.69H823.65Z"/><path class="cls-3" d="M899.61,369.31q.45-7.85-5.29-7.84c-3.28,0-5,1.37-5.2,4.11a5.33,5.33,0,0,0,1.82,3.73,82.39,82.39,0,0,0,8.53,6.11,46.19,46.19,0,0,1,9.3,7.52,12.62,12.62,0,0,1,2.78,8.53,24.73,24.73,0,0,1-.54,4.93q-2.21,10.22-17.42,10.21A17,17,0,0,1,881.28,402q-4.83-4.65-4.11-13.77h12q-1.18,9.48,5.2,9.85c3.4-.43,5.11-2.1,5.11-5a6,6,0,0,0-1.92-4.83q-.56-.46-5.79-3.88A68.23,68.23,0,0,1,883,377.7a14.89,14.89,0,0,1-4.52-6.56,26.59,26.59,0,0,1-1.09-6q.07-6.75,5.24-9.72a24.26,24.26,0,0,1,12.27-3q16.86,0,16.86,16.87Z"/><path class="cls-3" d="M982.86,353.72v5.66a10.18,10.18,0,0,1,3.92-5.16,11,11,0,0,1,6.38-2q6.84,0,9.67,5.7a29.78,29.78,0,0,1,2.83,13.36v17.24q0,14.49-8.21,17.32a15.77,15.77,0,0,1-4.29.55q-7.38,0-10.85-7v23H971.09V353.72Zm11,15.95c0-2.85-.38-4.95-1.14-6.28s-2.23-2-4.42-2a4.57,4.57,0,0,0-3.92,2.41,11.75,11.75,0,0,0-1.55,6.43v18.52q0,7.92,4.93,8.56a4.38,4.38,0,0,0,4.46-2q1.63-2.32,1.64-7Z"/><path class="cls-3" d="M1026.53,353.72h12.77l5.57,30.91,1.27,13,1.19-13,5.38-30.91h12.68l-12,51.43h-14.77Z"/><path class="cls-3" d="M1103.32,353.72v8.48h-5v30.27c0,1.7.28,2.73.82,3.06s2,.5,4.2.5v9.3c-.49,0-1.43.06-2.83.18s-2.58.18-3.56.18q-10.56,0-10.57-8.75V362.2h-4.74v-8.48h4.74V339.4h11.94v14.32Z"/><path class="cls-3" d="M1129.22,393h12v12.13h-12Z"/><path class="cls-3" d="M1208.36,336.76h12v68.39h-12Z"/><path class="cls-3" d="M1264.17,353.72v8.48h-5v30.27c0,1.7.28,2.73.83,3.06s1.94.5,4.19.5v9.3c-.49,0-1.43.06-2.83.18s-2.59.18-3.55.18q-10.59,0-10.58-8.75V362.2h-4.74v-8.48h4.74V339.4h11.94v14.32Z"/><path class="cls-3" d="M1308.94,359.19l-.36-2.46V336.58h11.76v68.57h-11.76v-5.84a10.53,10.53,0,0,1-4.11,5.34,11.57,11.57,0,0,1-6.57,2,13.68,13.68,0,0,1-3.82-.55q-8.49-2.73-8.48-18.15V370.22q0-16.05,9.76-17.78c.54-.06,1-.11,1.45-.13s1-.05,1.55-.05Q1305.65,352.26,1308.94,359.19Zm-.36,11.22a12.43,12.43,0,0,0-1.51-6.57,4.72,4.72,0,0,0-4.24-2.46q-3.19,0-4.24,2.28a16.79,16.79,0,0,0-1,6.75v17.5a13.82,13.82,0,0,0,1.51,7q1.5,2.55,3.78,2.55,5.75,0,5.75-9.58Z"/><path class="cls-3" d="M1350,393h12v12.13h-12Z"/></svg>