<svg width="178" height="75" viewBox="0 0 178 75" fill="none" xmlns="http://www.w3.org/2000/svg">
<path d="M11.1 67.6984C10.9 67.6984 10.7 67.6984 10.5 67.6984C10.3 67.6318 10.0667 67.5984 9.8 67.5984C9.6 67.5318 9.4 67.4651 9.2 67.3984C9 67.3318 8.83333 67.2318 8.7 67.0984C8.63333 66.8984 8.56666 66.7318 8.5 66.5984C8.43333 66.3984 8.4 66.1984 8.4 65.9984C8.33333 65.8651 8.3 65.6984 8.3 65.4984C8.23333 65.2984 8.2 65.0984 8.2 64.8984C8.3 64.7984 8.6 64.7984 8.6 64.8984C8.66666 65.2318 8.76666 65.5318 8.9 65.7984C9.1 66.0651 9.33333 66.2984 9.6 66.4984C9.8 66.6984 10.0667 66.8651 10.4 66.9984C10.6667 67.1318 10.9667 67.1984 11.3 67.1984C11.5667 67.1984 11.8333 67.1651 12.1 67.0984C12.3 67.0318 12.5 66.9318 12.7 66.7984C12.9 66.5984 13.0333 66.3651 13.1 66.0984C13.2333 65.8984 13.3 65.6651 13.3 65.3984C13.3 65.1984 13.2667 64.9651 13.2 64.6984C13.1333 64.4984 13.0667 64.2984 13 64.0984C12.8667 63.8984 12.7333 63.7318 12.6 63.5984C12.4 63.4651 12.2 63.3318 12 63.1984L10.5 62.1984C10.3 62.0651 10.1 61.8984 9.9 61.6984C9.7 61.5651 9.5 61.3651 9.3 61.0984C9.16666 60.8984 9.06666 60.6651 9 60.3984C8.86666 60.1318 8.8 59.8651 8.8 59.5984C8.8 58.0984 10 56.8984 12 56.8984C12.1333 56.8984 12.2667 56.8984 12.4 56.8984C12.4667 56.8984 12.5667 56.8984 12.7 56.8984C12.8333 56.9651 12.9667 56.9984 13.1 56.9984C13.2333 56.9984 13.3333 57.0318 13.4 57.0984C13.4667 57.0984 13.5333 57.0984 13.6 57.0984C13.6 57.0984 13.6333 57.0984 13.7 57.0984C13.7667 57.0984 13.8333 57.1318 13.9 57.1984C13.9 57.1984 13.9333 57.1984 14 57.1984C14.0667 57.3318 14.1 57.4651 14.1 57.5984C14.1667 57.7984 14.2 57.9651 14.2 58.0984C14.2 58.2318 14.2333 58.3984 14.3 58.5984C14.3 58.7318 14.3 58.8984 14.3 59.0984C14.2333 59.0984 14.2 59.0984 14.2 59.0984C14.1333 59.0984 14.1 59.0984 14.1 59.0984C14.0333 59.0984 14 59.0984 14 59.0984C13.9333 59.0984 13.9 59.0984 13.9 59.0984C13.8333 58.8318 13.7667 58.5651 13.7 58.2984C13.5667 58.0984 13.4 57.9318 13.2 57.7984C13 57.5984 12.7667 57.4651 12.5 57.3984C12.2333 57.3318 12 57.2984 11.8 57.2984C11.5333 57.2984 11.2667 57.3318 11 57.3984C10.8 57.4651 10.6 57.5651 10.4 57.6984C10.2 57.8984 10.0667 58.0984 10 58.2984C9.93333 58.5651 9.9 58.7984 9.9 58.9984C9.9 59.1984 9.93333 59.3984 10 59.5984C10.0667 59.7984 10.1667 59.9984 10.3 60.1984C10.4333 60.3318 10.5667 60.4984 10.7 60.6984C10.8333 60.8318 11 60.9318 11.2 60.9984L12.5 61.7984C12.7667 61.9318 13.0333 62.0984 13.3 62.2984C13.5 62.4984 13.7 62.7318 13.9 62.9984C14.0333 63.2651 14.1667 63.5651 14.3 63.8984C14.3667 64.1651 14.4333 64.4651 14.5 64.7984C14.5 66.4984 13.2 67.6984 11.1 67.6984Z" fill="#98A2B3"/>
<path d="M26.3 61.0016C26.3 60.7349 26.3 60.4682 26.3 60.2016C26.3 59.9349 26.2667 59.6682 26.2 59.4016C26.2 59.1349 26.1667 58.8682 26.1 58.6016C26.1 58.3349 26.0667 58.0682 26 57.8016C25.9333 57.7349 25.8667 57.7016 25.8 57.7016C25.7333 57.6349 25.6667 57.6016 25.6 57.6016C25.5333 57.5349 25.4667 57.5016 25.4 57.5016C25.3333 57.5016 25.2667 57.5016 25.2 57.5016H24.8C24.8 57.4349 24.8 57.4016 24.8 57.4016C24.8 57.3349 24.8 57.3016 24.8 57.3016C24.8 57.2349 24.8 57.2016 24.8 57.2016C24.8 57.1349 24.8 57.1016 24.8 57.1016C25.4 57.1016 26 57.1016 26.6 57.1016C27.2 57.1016 27.7 57.1016 28.2 57.1016C28.2667 57.1016 28.3 57.1349 28.3 57.2016C28.3 57.2016 28.3 57.2349 28.3 57.3016C28.3 57.3016 28.3 57.3349 28.3 57.4016C28.3 57.4016 28.2667 57.4349 28.2 57.5016H27.9C27.8333 57.5016 27.7333 57.5016 27.6 57.5016C27.5333 57.5016 27.4667 57.5349 27.4 57.6016C27.3333 57.6016 27.2667 57.6349 27.2 57.7016C27.2 57.7682 27.1667 57.8349 27.1 57.9016C27.0333 58.1016 27 58.3349 27 58.6016C26.9333 58.8682 26.9 59.1349 26.9 59.4016C26.9 59.6682 26.9 59.9349 26.9 60.2016C26.9 60.4682 26.9 60.7349 26.9 61.0016V62.8016C26.9 63.1349 26.9 63.4682 26.9 63.8016C26.8333 64.1349 26.7667 64.4349 26.7 64.7016C26.6333 65.0349 26.5 65.3682 26.3 65.7016C26.1667 65.9682 26 66.2349 25.8 66.5016C25.6 66.7016 25.4 66.8682 25.2 67.0016C24.9333 67.1349 24.6667 67.2682 24.4 67.4016C24.1333 67.4682 23.8667 67.5349 23.6 67.6016C23.3333 67.6682 23.0667 67.7016 22.8 67.7016C22.5333 67.7016 22.2667 67.6682 22 67.6016C21.7333 67.6016 21.5 67.5682 21.3 67.5016C21.0333 67.4349 20.8 67.3349 20.6 67.2016C20.3333 67.0682 20.1 66.9349 19.9 66.8016C19.1 66.1016 18.7 65.0016 18.7 63.1016V59.5016C18.7 57.8016 18.7 57.6016 17.7 57.5016H17.3C17.3 57.4349 17.3 57.4016 17.3 57.4016C17.3 57.3349 17.3 57.3016 17.3 57.3016C17.3 57.2349 17.3 57.2016 17.3 57.2016C17.3 57.1349 17.3 57.1016 17.3 57.1016C18.1 57.1016 18.6 57.1016 19.3 57.1016C19.9 57.1016 20.4 57.1016 21.2 57.1016C21.2 57.1016 21.2333 57.1349 21.3 57.2016C21.3 57.2016 21.3 57.2349 21.3 57.3016C21.3 57.3016 21.3 57.3349 21.3 57.4016C21.2333 57.4016 21.2 57.4349 21.2 57.5016H20.8C19.9 57.5016 19.9 57.8016 19.9 59.5016V62.8016C19.9 65.3016 20.7 67.0016 23.1 67.0016C25.5 67.0016 26.2 65.2016 26.2 62.8016V61.0016" fill="#98A2B3"/>
<path d="M40.4 64.8016C40.4 65.3016 40.4 67.1016 40.5 67.5016C40.5 67.5682 40.4667 67.6016 40.4 67.6016C40.4 67.6016 40.4 67.6349 40.4 67.7016C40.3333 67.7016 40.3 67.7016 40.3 67.7016C40.2333 67.7016 40.2 67.7016 40.2 67.7016C40 67.4016 39.5 66.9016 38.2 65.3016L34.6 61.2016C34.1 60.7016 33.1 59.4016 32.8 59.1016C32.7333 59.1682 32.7 59.2349 32.7 59.3016C32.7 59.4349 32.7 59.5349 32.7 59.6016C32.7 59.6682 32.7 59.7349 32.7 59.8016C32.7 59.9349 32.7 60.0349 32.7 60.1016V63.5016C32.7 63.7682 32.7 64.0349 32.7 64.3016C32.7 64.5682 32.7 64.8349 32.7 65.1016C32.7 65.3682 32.7333 65.6349 32.8 65.9016C32.8667 66.1682 32.9333 66.4349 33 66.7016C33 66.7682 33.0333 66.8349 33.1 66.9016C33.1667 66.9016 33.2333 66.9349 33.3 67.0016C33.3667 67.0016 33.4333 67.0016 33.5 67.0016C33.5667 67.0016 33.6667 67.0016 33.8 67.0016H34.2C34.2667 67.0682 34.3 67.1016 34.3 67.1016C34.3 67.1682 34.3 67.2016 34.3 67.2016C34.3 67.2682 34.3 67.3016 34.3 67.3016C34.3 67.3682 34.2667 67.4016 34.2 67.4016C33.5 67.4016 33 67.4016 32.4 67.4016C31.8 67.4016 31.3 67.4016 30.8 67.4016C30.7333 67.4016 30.7 67.3682 30.7 67.3016C30.7 67.3016 30.7 67.2682 30.7 67.2016C30.7 67.2016 30.7 67.1682 30.7 67.1016C30.7 67.1016 30.7333 67.0682 30.8 67.0016H31.2C31.6 67.0016 31.8 66.9016 31.9 66.7016C31.9 66.4349 31.9333 66.1682 32 65.9016C32 65.6349 32 65.3682 32 65.1016C32 64.8349 32 64.5682 32 64.3016C32 64.0349 32 63.7682 32 63.5016V59.0016C32 58.8682 32 58.7682 32 58.7016C32 58.5682 31.9667 58.4682 31.9 58.4016C31.9 58.3349 31.8667 58.2349 31.8 58.1016C31.8 58.0349 31.7667 57.9682 31.7 57.9016C31.5667 57.8349 31.4667 57.7682 31.4 57.7016C31.3333 57.7016 31.2667 57.6682 31.2 57.6016C31.1333 57.6016 31.0333 57.5682 30.9 57.5016C30.8333 57.5016 30.7667 57.5016 30.7 57.5016H30.4C30.3 57.4016 30.3 57.2016 30.4 57.1016C31 57.1016 31.9 57.1016 32.2 57.1016C32.2 57.1016 32.2333 57.1016 32.3 57.1016C32.3667 57.1016 32.4333 57.1016 32.5 57.1016C32.5667 57.1016 32.6333 57.1016 32.7 57.1016C32.7667 57.1016 32.8333 57.1016 32.9 57.1016C33.1 57.4349 33.3 57.7349 33.5 58.0016C33.7 58.3349 33.9 58.6349 34.1 58.9016C34.3667 59.1682 34.6 59.4349 34.8 59.7016C35.0667 60.0349 35.3 60.3016 35.5 60.5016L37.1 62.3016C38.2 63.5016 38.9 64.3016 39.7 65.1016C39.7 65.0349 39.7 64.9682 39.7 64.9016C39.7 64.8349 39.7 64.8016 39.7 64.8016C39.7 64.7349 39.7 64.6682 39.7 64.6016C39.7 64.5349 39.7 64.4682 39.7 64.4016V61.0016C39.7 60.7349 39.7 60.4682 39.7 60.2016C39.7 59.9349 39.7 59.6682 39.7 59.4016C39.6333 59.1349 39.6 58.8682 39.6 58.6016C39.5333 58.3349 39.4667 58.0682 39.4 57.8016C39.3 57.6016 39.1 57.5016 38.4 57.5016H38.1C38.1 57.4349 38.1 57.4016 38.1 57.4016C38.0333 57.3349 38 57.3016 38 57.3016C38 57.2349 38.0333 57.1682 38.1 57.1016C38.8 57.1016 39.4 57.1016 40 57.1016C40.6 57.1016 41 57.1016 41.6 57.1016C41.6667 57.1682 41.7 57.2349 41.7 57.3016C41.7 57.3016 41.6667 57.3349 41.6 57.4016C41.6 57.4016 41.6 57.4349 41.6 57.5016H41.4C40.9 57.5016 40.5 57.7016 40.5 57.8016C40.4333 58.0682 40.4 58.3349 40.4 58.6016C40.4 58.8682 40.4 59.1349 40.4 59.4016C40.4 59.6682 40.4 59.9349 40.4 60.2016C40.4 60.4682 40.4 60.7349 40.4 61.0016V64.7016" fill="#98A2B3"/>
<path d="M54.3 64.8016C54.3 65.3016 54.3 67.1016 54.3 67.5016C54.2333 67.5682 54.2 67.6016 54.2 67.6016C54.2 67.6016 54.1667 67.6349 54.1 67.7016C54.1 67.7016 54.0667 67.7016 54 67.7016C53.8 67.4016 53.3 66.9016 52 65.3016L48.4 61.2016C47.9 60.7016 46.9 59.4016 46.6 59.1016C46.5333 59.1682 46.5 59.2349 46.5 59.3016C46.5 59.4349 46.5 59.5349 46.5 59.6016C46.5 59.6682 46.5 59.7349 46.5 59.8016C46.5 59.9349 46.5 60.0349 46.5 60.1016V63.5016C46.5 63.7682 46.5 64.0349 46.5 64.3016C46.5 64.5682 46.5 64.8349 46.5 65.1016C46.5 65.3682 46.5333 65.6349 46.6 65.9016C46.6667 66.1682 46.7333 66.4349 46.8 66.7016C46.9 66.9016 47.2 67.0016 47.6 67.0016H48C48.0667 67.0682 48.1 67.1016 48.1 67.1016C48.1 67.1682 48.1 67.2016 48.1 67.2016C48.1 67.2682 48.1 67.3016 48.1 67.3016C48.1 67.3682 48.0667 67.4016 48 67.4016C47.3 67.4016 46.8 67.4016 46.2 67.4016C45.6 67.4016 45.1 67.4016 44.6 67.4016C44.5333 67.4016 44.5 67.3682 44.5 67.3016C44.5 67.3016 44.5 67.2682 44.5 67.2016C44.5 67.2016 44.5 67.1682 44.5 67.1016C44.5 67.1016 44.5333 67.0682 44.6 67.0016H45C45.4 67.0016 45.6 66.9016 45.7 66.7016C45.7667 66.4349 45.8 66.1682 45.8 65.9016C45.8667 65.6349 45.9 65.3682 45.9 65.1016C45.9 64.8349 45.9 64.5682 45.9 64.3016C45.9 64.0349 45.9 63.7682 45.9 63.5016V59.0016C45.9 58.8682 45.9 58.7682 45.9 58.7016C45.9 58.5682 45.8667 58.4682 45.8 58.4016C45.8 58.3349 45.7667 58.2349 45.7 58.1016C45.6333 58.0349 45.6 57.9682 45.6 57.9016C45.4667 57.8349 45.3667 57.7682 45.3 57.7016C45.2333 57.7016 45.1667 57.6682 45.1 57.6016C45.0333 57.6016 44.9333 57.5682 44.8 57.5016C44.7333 57.5016 44.6667 57.5016 44.6 57.5016H44.3C44.2 57.4016 44.2 57.2016 44.3 57.1016C44.9 57.1016 45.8 57.1016 46 57.1016C46.0667 57.1016 46.1333 57.1016 46.2 57.1016C46.2667 57.1016 46.3333 57.1016 46.4 57.1016C46.4667 57.1016 46.5333 57.1016 46.6 57.1016C46.6667 57.1016 46.7333 57.1016 46.8 57.1016C46.9333 57.4349 47.1333 57.7349 47.4 58.0016C47.6 58.3349 47.8 58.6349 48 58.9016C48.2 59.1682 48.4333 59.4349 48.7 59.7016C48.9667 60.0349 49.2 60.3349 49.4 60.6016L50.9 62.3016C52 63.5016 52.8 64.3016 53.5 65.1016C53.5667 65.0349 53.6 64.9682 53.6 64.9016C53.6 64.8349 53.6 64.8016 53.6 64.8016C53.6 64.7349 53.6 64.6682 53.6 64.6016C53.6 64.5349 53.6 64.4682 53.6 64.4016V61.0016C53.6 60.7349 53.6 60.4682 53.6 60.2016C53.6 59.9349 53.6 59.6682 53.6 59.4016C53.5333 59.1349 53.4667 58.8682 53.4 58.6016C53.4 58.3349 53.3667 58.0682 53.3 57.8016C53.2 57.6016 52.9 57.5016 52.3 57.5016H52C52 57.4349 52 57.4016 52 57.4016C51.9333 57.3349 51.9 57.3016 51.9 57.3016C51.9 57.2349 51.9333 57.1682 52 57.1016C52.7 57.1016 53.3 57.1016 53.9 57.1016C54.4 57.1016 54.9 57.1016 55.5 57.1016C55.5667 57.1682 55.6 57.2349 55.6 57.3016C55.6 57.3016 55.5667 57.3349 55.5 57.4016C55.5 57.4016 55.5 57.4349 55.5 57.5016H55.3C54.8 57.5016 54.4 57.7016 54.4 57.8016C54.3333 58.0682 54.3 58.3349 54.3 58.6016C54.2333 58.8682 54.2 59.1349 54.2 59.4016C54.2 59.6682 54.2 59.9349 54.2 60.2016C54.2 60.4682 54.2333 60.7349 54.3 61.0016V64.7016" fill="#98A2B3"/>
<path d="M62.9 65.1016C62.9 66.7016 63 67.0016 63.8 67.1016H64.4C64.5 67.2016 64.5 67.4016 64.4 67.4016C63.4 67.4016 62.9 67.4016 62.3 67.4016C61.7 67.4016 61.1 67.4016 60.3 67.4016C60.2 67.4016 60.1 67.1016 60.3 67.1016H60.7C61.6 67.0016 61.7 66.7016 61.7 65.1016V64.3016C61.7 64.1016 61.7 63.9349 61.7 63.8016C61.6333 63.6016 61.6 63.4016 61.6 63.2016C61.5333 63.0682 61.4667 62.9349 61.4 62.8016C61.3333 62.6016 61.2667 62.4349 61.2 62.3016L59.3 58.7016C58.8 57.7016 58.6 57.6016 58.1 57.5016H57.7C57.6333 57.4349 57.6 57.4016 57.6 57.4016C57.6 57.3349 57.6 57.3016 57.6 57.3016C57.6 57.2349 57.6 57.2016 57.6 57.2016C57.6 57.1349 57.6333 57.1016 57.7 57.1016C58.2 57.1016 58.7 57.1016 59.5 57.1016C60.2333 57.1016 60.7667 57.1016 61.1 57.1016C61.3 57.1016 61.3 57.4016 61.1 57.5016H60.9C60.4 57.5016 60.3 57.6016 60.3 57.7016C60.3 57.8349 60.3333 57.9682 60.4 58.1016C60.4 58.1682 60.4333 58.2682 60.5 58.4016C60.5667 58.4682 60.6 58.5682 60.6 58.7016C60.6667 58.7682 60.7333 58.8682 60.8 59.0016C61.4 60.2016 61.9 61.4016 62.6 62.5016C63 61.6016 63.6 60.7016 64 59.8016C64.1333 59.6682 64.2333 59.5016 64.3 59.3016C64.3667 59.1682 64.4667 59.0016 64.6 58.8016C64.6667 58.6682 64.7333 58.5016 64.8 58.3016C64.8667 58.1016 64.9333 57.9349 65 57.8016C65 57.7016 64.7 57.6016 64.4 57.5016H64.1C64.0333 57.5016 64 57.4682 64 57.4016C64 57.4016 64 57.3682 64 57.3016C64 57.3016 64 57.2682 64 57.2016C64 57.2016 64.0333 57.1682 64.1 57.1016C64.7 57.1016 65.1 57.1016 65.6 57.1016C66.1 57.1016 66.5 57.1016 67 57.1016C67.0667 57.1682 67.1 57.2016 67.1 57.2016C67.1 57.2682 67.1 57.3016 67.1 57.3016C67.1 57.3682 67.1 57.4016 67.1 57.4016C67.1 57.4682 67.0667 57.5016 67 57.5016L66.6 57.6016C65.8 57.7016 65.3 58.7016 64.5 60.1016L63.5 61.8016C63.3667 61.9349 63.2667 62.1016 63.2 62.3016C63.0667 62.5016 62.9667 62.7349 62.9 63.0016C62.8333 63.2016 62.8 63.4016 62.8 63.6016C62.8 63.8682 62.8 64.1016 62.8 64.3016V65.1016" fill="#98A2B3"/>
<path fill-rule="evenodd" clip-rule="evenodd" d="M75.7 59.2016C75.7 58.1016 75.6 57.7016 74.9 57.6016H74.6C74.5333 57.6016 74.5 57.5682 74.5 57.5016C74.5 57.5016 74.5 57.4682 74.5 57.4016C74.5 57.4016 74.5 57.3682 74.5 57.3016C74.5 57.3016 74.5333 57.2682 74.6 57.2016C75.9 57.2016 77.2 57.1016 78.5 57.1016C78.7667 57.1016 79.0667 57.1016 79.4 57.1016C79.6667 57.1016 79.9333 57.1349 80.2 57.2016C80.5333 57.2682 80.8333 57.3349 81.1 57.4016C81.3667 57.4016 81.6333 57.4682 81.9 57.6016C82.3667 57.7349 82.8 57.9682 83.2 58.3016C83.6 58.5682 83.9667 58.9349 84.3 59.4016C84.5667 59.8016 84.7667 60.2349 84.9 60.7016C85.0333 61.1682 85.1 61.6682 85.1 62.2016C85.1 62.6682 85.0333 63.1349 84.9 63.6016C84.8333 64.0682 84.6667 64.5016 84.4 64.9016C84.1333 65.3016 83.8333 65.6682 83.5 66.0016C83.1667 66.3349 82.8 66.6016 82.4 66.8016C82.1333 66.9349 81.8333 67.0682 81.5 67.2016C81.2333 67.2682 80.9667 67.3349 80.7 67.4016C80.3667 67.4682 80.0667 67.5349 79.8 67.6016C79.4667 67.6016 79.1667 67.6016 78.9 67.6016C77.9 67.6016 76.9 67.5016 76.3 67.5016C75.7667 67.5016 75.1 67.5016 74.3 67.5016C74.2 67.5016 74.2 67.2016 74.3 67.1016H74.7C75.6 67.0016 75.6 66.8016 75.6 65.1016L75.7 59.2016ZM77 64.8016C77 64.9349 77 65.0682 77 65.2016C77 65.3349 77 65.5016 77 65.7016C77.0667 65.8349 77.1 65.9682 77.1 66.1016C77.1667 66.2349 77.2333 66.3682 77.3 66.5016C77.7 67.0016 78.3 67.1016 79.2 67.1016C82.2 67.1016 83.6 65.1016 83.6 62.2016C83.6 60.5016 82.8 57.6016 78.7 57.6016C78.5667 57.6016 78.4333 57.6016 78.3 57.6016C78.1667 57.6016 78.0333 57.6016 77.9 57.6016C77.7667 57.6682 77.6333 57.7016 77.5 57.7016C77.3667 57.7682 77.2667 57.8016 77.2 57.8016C77 57.9016 77 58.3016 77 59.0016V64.8016Z" fill="#98A2B3"/>
<path d="M89.4 59.5016C89.4 57.8016 89.4 57.6016 88.4 57.5016H88C87.9 57.4016 88 57.2016 88 57.1016C88.8 57.1016 89.3 57.1016 90 57.1016C90.7 57.1016 91.2 57.1016 92 57.1016C92.1 57.1016 92.1 57.4016 92 57.5016H91.6C90.6 57.6016 90.6 57.9016 90.6 59.5016V65.1016C90.6 66.7016 90.6 66.9016 91.6 67.1016H92C92.1 67.1016 92 67.4016 92 67.4016C91.2 67.4016 90.6 67.4016 90 67.4016C89.4 67.4016 88.8 67.4016 88 67.4016C87.9 67.4016 87.9 67.1016 88 67.1016H88.4C89.3 67.0016 89.4 66.7016 89.4 65.1016V59.5016Z" fill="#98A2B3"/>
<path fill-rule="evenodd" clip-rule="evenodd" d="M100.6 63.8016C100.5 63.5016 100.5 63.4016 100 63.4016H97.6C97.2 63.4016 97.1 63.4016 97 63.8016L96.5 65.4016C96.4333 65.5349 96.4 65.6349 96.4 65.7016C96.3333 65.8349 96.3 65.9682 96.3 66.1016C96.2333 66.1682 96.2 66.2682 96.2 66.4016C96.2 66.4682 96.1667 66.5682 96.1 66.7016C96.1 66.9016 96.2 67.0016 96.6 67.0016H97.1C97.1 67.0682 97.1333 67.1016 97.2 67.1016C97.2 67.1682 97.2 67.2016 97.2 67.2016C97.2 67.2682 97.2 67.3016 97.2 67.3016C97.1333 67.3682 97.1 67.4016 97.1 67.4016C96.7 67.4016 96.2 67.4016 95.5 67.4016C95 67.4016 94.4 67.4016 94 67.4016C93.9 67.3016 93.8 67.1016 94 67.0016H94.5C94.6333 67.0016 94.7333 67.0016 94.8 67.0016C94.9333 66.9349 95.0333 66.8682 95.1 66.8016C95.1667 66.7349 95.2333 66.6682 95.3 66.6016C95.3667 66.4682 95.4 66.3682 95.4 66.3016C95.7 65.5016 96.1 64.5016 96.8 62.8016L98.4 58.6016C98.4667 58.4682 98.5 58.3682 98.5 58.3016C98.5667 58.2349 98.6 58.1349 98.6 58.0016C98.6 57.9349 98.6 57.8349 98.6 57.7016C98.6667 57.6349 98.7 57.5349 98.7 57.4016C98.7667 57.4016 98.8333 57.3682 98.9 57.3016C98.9667 57.3016 99.0333 57.2682 99.1 57.2016C99.1667 57.1349 99.2333 57.0682 99.3 57.0016C99.3667 57.0016 99.4333 56.9682 99.5 56.9016C99.5 56.8349 99.5 56.8349 99.5 56.9016C99.5667 56.9016 99.6 56.9016 99.6 56.9016C99.6 56.9016 99.6333 56.9016 99.7 56.9016C99.7 56.9682 99.7 57.0016 99.7 57.0016C99.9 57.7016 100.2 58.4016 100.4 59.1016L102.5 65.4016C103 66.7016 103.2 67.0016 103.9 67.0016H104.3C104.4 67.1016 104.4 67.3016 104.3 67.4016C103.6 67.4016 103.1 67.4016 102.4 67.4016C101.7 67.4016 101.1 67.4016 100.6 67.4016C100.6 67.4016 100.567 67.3682 100.5 67.3016C100.5 67.3016 100.5 67.2682 100.5 67.2016C100.5 67.2016 100.5 67.1682 100.5 67.1016C100.567 67.1016 100.6 67.0682 100.6 67.0016H101.1C101.4 67.0016 101.6 66.9016 101.6 66.8016C101.6 66.6682 101.6 66.5682 101.6 66.5016C101.6 66.4349 101.567 66.3682 101.5 66.3016C101.5 66.2349 101.5 66.1682 101.5 66.1016C101.433 66.0349 101.4 65.9682 101.4 65.9016L100.6 63.8016ZM97.5 62.5016C97.4 62.8016 97.4 62.8016 97.8 62.8016H99.7C100.2 62.8016 100.2 62.8016 100.1 62.3016L99.2 59.8016C99.2 59.7349 99.2 59.6349 99.2 59.5016C99.1333 59.4349 99.1 59.3682 99.1 59.3016C99.0333 59.2349 99 59.1349 99 59.0016C98.9333 58.9349 98.9 58.8682 98.9 58.8016C98.9 58.9016 98.7 59.2016 98.5 59.7016L97.5 62.4016V62.5016Z" fill="#98A2B3"/>
<path d="M111.6 63.3016C112 64.0349 112.367 64.7349 112.7 65.4016C113.1 64.7016 113.5 63.9016 113.9 63.1016L115.4 60.1016C115.533 59.8349 115.667 59.6016 115.8 59.4016C115.933 59.1349 116.033 58.8682 116.1 58.6016C116.233 58.3349 116.333 58.0682 116.4 57.8016C116.467 57.6016 116.533 57.3682 116.6 57.1016C116.667 57.1016 116.767 57.1016 116.9 57.1016C116.967 57.1016 117.067 57.1016 117.2 57.1016C117.267 57.1016 117.367 57.1016 117.5 57.1016C117.567 57.1016 117.667 57.1016 117.8 57.1016C118.2 57.1016 118.7 57.1016 119.2 57.1016C119.2 57.1016 119.2 57.1349 119.2 57.2016C119.2 57.2016 119.2 57.2349 119.2 57.3016C119.2 57.3016 119.2 57.3349 119.2 57.4016H118.8C117.8 57.5016 117.7 57.8016 117.7 58.9016C117.7 60.6016 117.7 63.5016 117.9 65.7016C117.9 66.5016 117.9 66.9016 118.7 67.0016H119.2C119.2 67.0016 119.2 67.0349 119.2 67.1016C119.2 67.1016 119.2 67.1349 119.2 67.2016C119.2 67.2682 119.2 67.3016 119.2 67.3016C119.2 67.3682 119.2 67.4016 119.2 67.4016C118.5 67.4016 117.9 67.4016 117.3 67.4016C116.8 67.4016 116.1 67.4016 115.4 67.4016C115.4 67.4016 115.4 67.3682 115.4 67.3016C115.4 67.3016 115.4 67.2682 115.4 67.2016C115.4 67.1349 115.4 67.1016 115.4 67.1016C115.4 67.0349 115.4 67.0016 115.4 67.0016H115.9C116.7 66.9016 116.7 66.7016 116.7 65.7016V59.2016C116.5 59.3016 116 60.6016 115.7 61.2016L114.1 64.0016C113.4 65.4016 112.7 66.8016 112.5 67.6016H112.3H112.2C111.9 66.7016 111.2 65.2016 110.8 64.4016L109.4 61.4016C109 60.7016 108.7 59.9016 108.4 59.2016C108.3 60.2016 108.3 61.1016 108.2 62.0016C108.2 62.9016 108.1 64.3016 108.1 65.6016C108.1 66.8016 108.2 67.1016 108.8 67.1016H109.4C109.5 67.2016 109.5 67.4016 109.4 67.5016C108.9 67.5016 108.3 67.5016 107.7 67.5016C107.1 67.5016 106.6 67.5016 106.1 67.5016C106 67.4016 105.9 67.2016 106.1 67.1016H106.4C107.1 67.0016 107.3 66.9016 107.4 65.8016C107.5 64.7016 107.6 63.9016 107.7 62.4016C107.8 61.1016 107.8 59.7016 107.9 58.9016C107.9 58.0016 107.8 57.7016 106.9 57.5016H106.6C106.6 57.5016 106.6 57.4682 106.6 57.4016C106.533 57.4016 106.533 57.3682 106.6 57.3016C106.6 57.3016 106.6 57.2682 106.6 57.2016C106.6 57.2016 106.633 57.1682 106.7 57.1016C107.1 57.1016 107.5 57.1016 107.9 57.1016C108.033 57.1682 108.133 57.2016 108.2 57.2016C108.333 57.2016 108.433 57.2016 108.5 57.2016C108.633 57.2016 108.767 57.2016 108.9 57.2016C108.967 57.2016 109.067 57.2016 109.2 57.2016C109.2 57.4016 109.233 57.6016 109.3 57.8016C109.3 58.0682 109.367 58.3016 109.5 58.5016C109.567 58.7016 109.633 58.9016 109.7 59.1016C109.767 59.3016 109.867 59.5016 110 59.7016L111.8 63.3016" fill="#98A2B3"/>
<path fill-rule="evenodd" clip-rule="evenodd" d="M122.1 62.3989C122.1 61.6656 122.233 60.9322 122.5 60.1989C122.767 59.5322 123.167 58.9322 123.7 58.3989C124.233 57.9322 124.833 57.5322 125.5 57.1989C126.167 56.9322 126.9 56.8322 127.7 56.8989C128.367 56.8322 129.067 56.9322 129.8 57.1989C130.467 57.4656 131.067 57.8322 131.6 58.2989C132.067 58.8322 132.433 59.4322 132.7 60.0989C132.967 60.7656 133.1 61.4656 133.1 62.1989C133.1 62.9322 132.967 63.6322 132.7 64.2989C132.433 64.9656 132.033 65.5656 131.5 66.0989C131.033 66.6322 130.467 67.0322 129.8 67.2989C129.067 67.5656 128.367 67.6989 127.7 67.6989C126.967 67.6989 126.233 67.5989 125.5 67.3989C124.833 67.1322 124.233 66.7322 123.7 66.1989C123.167 65.7322 122.767 65.1656 122.5 64.4989C122.233 63.8322 122.1 63.1322 122.1 62.3989ZM131.5 62.6989C131.5 60.0989 130.4 57.3989 127.4 57.3989C125.8 57.3989 123.7 58.4989 123.7 61.8989C123.7 64.1989 124.8 67.1989 127.9 67.1989C129.7 67.1989 131.5 65.7989 131.5 62.6989Z" fill="#98A2B3"/>
<path d="M145.8 64.8016C145.8 65.3016 145.8 67.1016 145.8 67.5016C145.8 67.5682 145.8 67.6016 145.8 67.6016C145.8 67.6016 145.767 67.6349 145.7 67.7016C145.7 67.7016 145.667 67.7016 145.6 67.7016C145.6 67.7016 145.567 67.7016 145.5 67.7016C145.3 67.4016 144.9 66.9016 143.5 65.3016L139.9 61.2016C139.5 60.7016 138.4 59.4016 138.1 59.1016C138.1 59.1682 138.067 59.2349 138 59.3016C138 59.4349 138 59.5349 138 59.6016C138 59.6682 138 59.7349 138 59.8016C138 59.9349 138 60.0349 138 60.1016V63.5016C138 63.7682 138 64.0349 138 64.3016C138 64.5682 138 64.8349 138 65.1016C138.067 65.3682 138.1 65.6349 138.1 65.9016C138.167 66.1682 138.233 66.4349 138.3 66.7016C138.367 66.7682 138.433 66.8349 138.5 66.9016C138.567 66.9016 138.633 66.9349 138.7 67.0016C138.767 67.0016 138.833 67.0016 138.9 67.0016C138.967 67.0016 139.033 67.0016 139.1 67.0016H139.6C139.6 67.0682 139.6 67.1016 139.6 67.1016C139.667 67.1682 139.7 67.2016 139.7 67.2016C139.7 67.2682 139.667 67.3016 139.6 67.3016C139.6 67.3682 139.6 67.4016 139.6 67.4016C138.9 67.4016 138.3 67.4016 137.7 67.4016C137.2 67.4016 136.7 67.4016 136.1 67.4016C136.1 67.4016 136.1 67.3682 136.1 67.3016C136.1 67.3016 136.1 67.2682 136.1 67.2016C136.1 67.2016 136.1 67.1682 136.1 67.1016C136.1 67.1016 136.1 67.0682 136.1 67.0016H136.5C136.9 67.0016 137.2 66.9016 137.2 66.7016C137.267 66.4349 137.333 66.1682 137.4 65.9016C137.4 65.6349 137.4 65.3682 137.4 65.1016C137.467 64.8349 137.5 64.5682 137.5 64.3016C137.5 64.0349 137.467 63.7682 137.4 63.5016V59.0016C137.467 58.8682 137.467 58.7682 137.4 58.7016C137.4 58.5682 137.4 58.4682 137.4 58.4016C137.333 58.3349 137.3 58.2349 137.3 58.1016C137.233 58.0349 137.167 57.9682 137.1 57.9016C137.033 57.8349 136.967 57.7682 136.9 57.7016C136.833 57.7016 136.733 57.6682 136.6 57.6016C136.533 57.6016 136.467 57.5682 136.4 57.5016C136.267 57.5016 136.167 57.5016 136.1 57.5016H135.8C135.7 57.4016 135.7 57.2016 135.8 57.1016C136.5 57.1016 137.3 57.1016 137.6 57.1016C137.667 57.1016 137.733 57.1016 137.8 57.1016C137.867 57.1016 137.933 57.1016 138 57.1016C138.067 57.1016 138.1 57.1016 138.1 57.1016C138.167 57.1016 138.233 57.1016 138.3 57.1016C138.5 57.4349 138.7 57.7349 138.9 58.0016C139.1 58.3349 139.333 58.6349 139.6 58.9016C139.8 59.1682 140.033 59.4349 140.3 59.7016C140.5 59.9682 140.733 60.2349 141 60.5016L142.5 62.2016C143.6 63.4016 144.4 64.3016 145.1 65.0016C145.1 65.0016 145.1 64.9682 145.1 64.9016C145.167 64.8349 145.2 64.7682 145.2 64.7016C145.2 64.6349 145.2 64.6016 145.2 64.6016C145.2 64.5349 145.2 64.4682 145.2 64.4016V61.0016C145.2 60.7349 145.2 60.4682 145.2 60.2016C145.2 59.9349 145.167 59.6682 145.1 59.4016C145.1 59.1349 145.067 58.8682 145 58.6016C144.933 58.3349 144.9 58.0682 144.9 57.8016C144.8 57.6016 144.5 57.5016 143.9 57.5016H143.6C143.5 57.4016 143.5 57.1016 143.6 57.1016C144.3 57.1016 144.8 57.1016 145.4 57.1016C146 57.1016 146.5 57.1016 147 57.1016C147.067 57.1016 147.1 57.1016 147.1 57.1016C147.1 57.1682 147.1 57.2349 147.1 57.3016C147.1 57.3016 147.1 57.3349 147.1 57.4016C147.1 57.4016 147.067 57.4349 147 57.5016H146.8C146.3 57.5016 146 57.7016 146 57.8016C145.933 58.0682 145.867 58.3349 145.8 58.6016C145.8 58.8682 145.767 59.1349 145.7 59.4016C145.7 59.6682 145.7 59.9349 145.7 60.2016C145.7 60.4682 145.7 60.7349 145.7 61.0016V64.7016" fill="#98A2B3"/>
<path fill-rule="evenodd" clip-rule="evenodd" d="M151.2 59.2016C151.2 58.1016 151.1 57.7016 150.4 57.6016H150.1C150 57.6016 150 57.3016 150.1 57.2016C151.4 57.2016 152.7 57.1016 154 57.1016C154.333 57.1016 154.633 57.1016 154.9 57.1016C155.167 57.1016 155.467 57.1349 155.8 57.2016C156.067 57.2682 156.333 57.3349 156.6 57.4016C156.933 57.4016 157.233 57.4682 157.5 57.6016C157.967 57.7349 158.4 57.9682 158.8 58.3016C159.2 58.5682 159.533 58.9349 159.8 59.4016C160.067 59.8016 160.3 60.2349 160.5 60.7016C160.633 61.1682 160.667 61.6682 160.6 62.2016C160.667 62.6682 160.633 63.1349 160.5 63.6016C160.367 64.0682 160.167 64.5016 159.9 64.9016C159.7 65.3016 159.433 65.6682 159.1 66.0016C158.7 66.3349 158.3 66.6016 157.9 66.8016C157.633 66.9349 157.367 67.0682 157.1 67.2016C156.767 67.2682 156.467 67.3349 156.2 67.4016C155.933 67.4682 155.633 67.5349 155.3 67.6016C155.033 67.6016 154.733 67.6016 154.4 67.6016C153.4 67.6016 152.4 67.5016 151.9 67.5016C151.3 67.5016 150.633 67.5016 149.9 67.5016C149.8 67.5016 149.7 67.2016 149.9 67.1016H150.2C151.1 67.0016 151.2 66.8016 151.2 65.1016V59.2016ZM152.4 64.8016C152.4 64.9349 152.4 65.0682 152.4 65.2016C152.4 65.3349 152.433 65.5016 152.5 65.7016C152.5 65.8349 152.533 65.9682 152.6 66.1016C152.6 66.2349 152.633 66.3682 152.7 66.5016C153.1 67.0016 153.7 67.1016 154.7 67.1016C157.7 67.1016 159.1 65.1016 159.1 62.2016C159.1 60.5016 158.2 57.6016 154.1 57.6016C153.967 57.6016 153.833 57.6016 153.7 57.6016C153.567 57.6016 153.433 57.6016 153.3 57.6016C153.233 57.6682 153.133 57.7016 153 57.7016C152.867 57.7682 152.733 57.8016 152.6 57.8016C152.5 57.9016 152.4 58.3016 152.4 59.0016V64.8016Z" fill="#98A2B3"/>
<path d="M166.4 67.6984C166.2 67.6984 166 67.6984 165.8 67.6984C165.6 67.6318 165.4 67.5984 165.2 67.5984C165 67.5318 164.8 67.4651 164.6 67.3984C164.4 67.3318 164.2 67.2318 164 67.0984C163.933 66.8984 163.867 66.7318 163.8 66.5984C163.8 66.3984 163.767 66.1984 163.7 65.9984C163.633 65.8651 163.6 65.6984 163.6 65.4984C163.6 65.2984 163.6 65.0984 163.6 64.8984C163.6 64.7984 163.9 64.7984 163.9 64.8984C163.967 65.2318 164.1 65.5318 164.3 65.7984C164.433 66.0651 164.633 66.3318 164.9 66.5984C165.167 66.7984 165.433 66.9651 165.7 67.0984C166.033 67.1651 166.333 67.2318 166.6 67.2984C166.867 67.2984 167.133 67.2651 167.4 67.1984C167.667 67.1318 167.9 66.9984 168.1 66.7984C168.233 66.6651 168.367 66.4651 168.5 66.1984C168.567 65.9318 168.6 65.6984 168.6 65.4984C168.667 65.2318 168.667 64.9984 168.6 64.7984C168.533 64.5984 168.433 64.3984 168.3 64.1984C168.233 63.9984 168.1 63.8318 167.9 63.6984C167.767 63.4984 167.6 63.3651 167.4 63.2984L165.9 62.2984C165.633 62.1651 165.4 61.9984 165.2 61.7984C165 61.5984 164.833 61.3651 164.7 61.0984C164.567 60.8984 164.433 60.6651 164.3 60.3984C164.233 60.1318 164.2 59.8651 164.2 59.5984C164.2 58.0984 165.3 56.8984 167.4 56.8984C167.533 56.8984 167.633 56.8984 167.7 56.8984C167.833 56.8984 167.967 56.8984 168.1 56.8984C168.233 56.9651 168.367 56.9984 168.5 56.9984C168.633 56.9984 168.733 57.0318 168.8 57.0984C168.867 57.0984 168.933 57.0984 169 57.0984C169 57.0984 169.033 57.1318 169.1 57.1984C169.167 57.1984 169.2 57.1984 169.2 57.1984C169.267 57.1984 169.333 57.1984 169.4 57.1984C169.4 57.3318 169.433 57.4984 169.5 57.6984C169.567 57.8318 169.6 57.9651 169.6 58.0984C169.6 58.2984 169.6 58.4651 169.6 58.5984C169.667 58.7318 169.7 58.8984 169.7 59.0984C169.633 59.0984 169.6 59.0984 169.6 59.0984C169.533 59.1651 169.5 59.1984 169.5 59.1984C169.433 59.1984 169.4 59.1651 169.4 59.0984C169.333 59.0984 169.3 59.0984 169.3 59.0984C169.233 58.8318 169.133 58.5984 169 58.3984C168.867 58.1318 168.7 57.9318 168.5 57.7984C168.367 57.5984 168.167 57.4651 167.9 57.3984C167.633 57.3318 167.367 57.2984 167.1 57.2984C166.9 57.2984 166.667 57.3318 166.4 57.3984C166.2 57.4651 166 57.5651 165.8 57.6984C165.6 57.8984 165.467 58.0984 165.4 58.2984C165.333 58.5651 165.3 58.8318 165.3 59.0984C165.3 59.2984 165.333 59.4984 165.4 59.6984C165.467 59.8318 165.567 59.9984 165.7 60.1984C165.767 60.3318 165.9 60.4984 166.1 60.6984C166.233 60.8318 166.4 60.9318 166.6 60.9984L167.8 61.7984C168.067 61.9318 168.333 62.0984 168.6 62.2984C168.8 62.4984 169 62.7318 169.2 62.9984C169.4 63.2651 169.533 63.5651 169.6 63.8984C169.667 64.1651 169.733 64.4651 169.8 64.7984C169.8 66.4984 168.5 67.6984 166.4 67.6984Z" fill="#98A2B3"/>
<path fill-rule="evenodd" clip-rule="evenodd" d="M78.8 21.1016C82.4 20.8016 86.7 22.1016 87.1 26.4016C87.5 30.7016 83.5 33.4016 79.6 33.8016C76.5 34.1016 74.1 33.1016 74 32.8016C74 32.8016 74 32.7682 74 32.7016C74 32.7016 74.0333 32.7016 74.1 32.7016C74.1 32.6349 74.1 32.6016 74.1 32.6016C74.1667 32.6016 74.2 32.6016 74.2 32.6016C74.6 32.8016 75.0333 32.9349 75.5 33.0016C75.9 33.1349 76.3333 33.2349 76.8 33.3016C77.2667 33.3682 77.7 33.4016 78.1 33.4016C78.5667 33.4016 79.0333 33.3682 79.5 33.3016C83.1 33.0016 87 30.5016 86.6 26.4016C86.3 22.8016 82.5 22.0016 79.5 22.2016C74.5 22.7016 69.5 26.9016 69.9 32.2016C70.3 36.6016 76.1 38.1016 79.7 37.8016C89.6 36.8016 91.8 29.2016 94.7 21.1016C93.9 21.2016 93.2 21.4016 92.4 21.5016C88 21.9016 82.7 19.9016 82.3 15.5016C81.9 11.2016 85.6 8.10156 90.3 7.60156C91.2333 7.5349 92.1333 7.56823 93 7.70156C93.9333 7.8349 94.8 8.06823 95.6 8.40156C96.4667 8.7349 97.3 9.16823 98.1 9.70156C98.8333 10.1682 99.5 10.7349 100.1 11.4016C101.5 9.80156 104 7.60156 106.1 7.40156C106.367 7.3349 106.633 7.3349 106.9 7.40156C107.167 7.46823 107.4 7.56823 107.6 7.70156C107.8 7.90156 107.967 8.1349 108.1 8.40156C108.233 8.60156 108.3 8.8349 108.3 9.10156C108.7 13.5016 102.2 19.0016 97.3 20.4016C95.2 26.9016 93.2 32.9016 86.7 36.3016C86.1667 36.5682 85.6333 36.8349 85.1 37.1016C84.5 37.3016 83.9333 37.5016 83.4 37.7016C82.8 37.8349 82.2 37.9682 81.6 38.1016C81 38.1682 80.4 38.2349 79.8 38.3016C75.1 38.8016 69.2 36.9016 68.7 31.4016C68.2 25.9016 73.6 21.6016 78.8 21.1016ZM93.1 20.4016C93.3 20.3349 93.4667 20.3016 93.6 20.3016C93.7333 20.3016 93.9 20.2682 94.1 20.2016C94.2333 20.2016 94.3667 20.1682 94.5 20.1016C94.7 20.1016 94.8667 20.0682 95 20.0016C95.2667 19.2682 95.6 18.5349 96 17.8016C96.3333 17.0682 96.7 16.3349 97.1 15.6016C97.5 14.9349 97.9333 14.2682 98.4 13.6016C98.8667 12.8682 99.3333 12.2016 99.8 11.6016C99.2 11.0016 98.5333 10.4349 97.8 9.90156C97.1333 9.4349 96.3667 9.06823 95.5 8.80156C94.7 8.46823 93.9 8.2349 93.1 8.10156C92.2333 7.96823 91.3667 7.9349 90.5 8.00156C86.2 8.40156 82.9 10.9016 83.2 14.7016C83.6 18.7016 89.3 20.7016 93.1 20.4016ZM106.2 7.80156C104.2 8.00156 101.8 10.6016 100.9 12.2016C101.033 12.4016 101.167 12.5682 101.3 12.7016C101.5 12.9016 101.667 13.1016 101.8 13.3016C101.933 13.5016 102.067 13.7016 102.2 13.9016C102.333 14.1016 102.467 14.3016 102.6 14.5016C102.6 14.5682 102.6 14.6016 102.6 14.6016C102.6 14.6016 102.567 14.6349 102.5 14.7016C102.433 14.7016 102.4 14.7016 102.4 14.7016C102.3 14.7016 101.6 13.5016 100.7 12.5016C100.367 13.0349 100.033 13.6016 99.7 14.2016C99.4333 14.7349 99.1667 15.3016 98.9 15.9016C98.6333 16.5016 98.4 17.1016 98.2 17.7016C97.9333 18.3016 97.7333 18.9016 97.6 19.5016C102.2 18.4016 108.2 13.4016 107.8 9.20156C107.8 8.9349 107.767 8.7349 107.7 8.60156C107.567 8.40156 107.433 8.2349 107.3 8.10156C107.167 7.96823 107 7.90156 106.8 7.90156C106.6 7.8349 106.4 7.80156 106.2 7.80156Z" fill="#98A2B3"/>
<path fill-rule="evenodd" clip-rule="evenodd" d="M109.2 15.3C109.2 15.6 107 16.3 105 18.4C105.467 18.9333 105.867 19.4667 106.2 20C106.533 20.5333 106.833 21.1 107.1 21.7C107.3 22.3 107.467 22.9333 107.6 23.6C107.733 24.2667 107.8 24.9333 107.8 25.6C107.9 35.8 98.9 41 89.5 41.1C88.5 41.1 87.5 40.9 86.5 40.9C85.2 40.9 84 41.1 82.7 41.1C79.9 41.1 78.6 40.8 78.6 39.9C78.6 39.5 79.1 39.3 80.1 39.3C82.7 39.3 84.5 40.1 86.6 40.1C90.2 40.1 93.3 34.3 95.8 29.6C96.1333 28.9333 96.5 28.2667 96.9 27.6C97.3 26.9333 97.7 26.2667 98.1 25.6C98.5 25 98.9 24.3667 99.3 23.7C99.7667 23.1 100.233 22.5 100.7 21.9L101 21.5C101.4 21.0333 101.8 20.5667 102.2 20.1C102.667 19.6333 103.133 19.2 103.6 18.8C104 18.3333 104.467 17.9333 105 17.6C105.467 17.2 105.967 16.8333 106.5 16.5C106.7 16.4 106.8 16.3 107 16.2C107.6 15.8 108.2 15.5 108.6 15.3L109.1 15C109.3 15 109.3 15.2 109.3 15.4L109.2 15.3ZM107.3 25.7C107.3 25.0333 107.267 24.4 107.2 23.8C107.067 23.1333 106.9 22.5 106.7 21.9C106.5 21.3 106.233 20.7333 105.9 20.2C105.567 19.6667 105.167 19.1667 104.7 18.7C101.7 22.1 100 26.4 97.7 30.4C95.6 34.1 91.5 39.2 87 40.5C87.8 40.4 88.7 40.5 90.1 40.5C99 40.5 107.4 34.9 107.3 25.7Z" fill="#98A2B3"/>
</svg>
