<svg width="329" height="141" viewBox="0 0 329 141" fill="none" xmlns="http://www.w3.org/2000/svg">
<path d="M38.7596 135.228C37.2896 132.068 33.2996 123.638 29.9096 116.488C26.5096 109.338 20.5896 96.7381 16.7496 88.4881C12.8996 80.2381 8.44957 70.8581 6.84957 67.6481C5.24957 64.4381 3.93956 61.4081 3.93956 60.8981C3.93956 60.3981 7.03956 59.9881 10.8196 59.9881H17.7096L25.7396 77.7381C39.7696 108.738 41.3096 111.988 41.9696 111.988C42.3296 111.988 44.2296 108.498 46.1996 104.238C51.3096 93.1681 60.2096 73.5581 63.4496 66.2381L66.2096 59.9881H73.4996H80.7896L70.7696 81.2381C65.2596 92.9281 59.1596 105.868 57.1996 109.988C55.2496 114.108 51.2496 122.658 48.3196 128.978C45.3896 135.298 42.6396 140.588 42.2096 140.718C41.7896 140.858 40.2296 138.378 38.7596 135.228ZM89.9396 99.9881V59.9881H113.99H138.04L137.74 66.2381L137.44 72.4881L120.17 72.7581L102.91 73.0381L103.17 100.258L103.44 127.488L120.69 127.758L137.94 128.038V134.008V139.988H113.94H89.9396V99.9881ZM163.94 139.048C159.25 137.618 153.44 134.178 150.5 131.068L147.55 127.968L151.45 123.978C153.59 121.788 155.85 119.988 156.47 119.988C157.09 119.988 158.64 121.098 159.92 122.458C161.2 123.828 164.19 125.688 166.58 126.598C180.67 131.978 191.29 116.778 179.08 108.698C177 107.328 172.63 104.848 169.37 103.188C161.88 99.3781 155.67 94.0481 153.57 89.6181C152.63 87.6381 151.94 83.6681 151.94 80.2381C151.94 75.3781 152.45 73.5281 154.74 70.1181C159.25 63.4081 164.05 60.7481 172.64 60.1981C179.34 59.7681 180.49 59.9881 186.2 62.8581C189.63 64.5781 193.74 67.1481 195.33 68.5581L198.22 71.1281L193.96 75.4681L189.71 79.7981L185.33 76.4581C176.2 69.4881 164.07 71.5881 163.97 80.1581C163.92 84.1781 168.38 88.6881 176.33 92.6681C191.75 100.398 196.94 106.478 196.94 116.838C196.94 126.398 192.41 133.358 183.44 137.608C178.29 140.038 169.35 140.708 163.94 139.048ZM224.94 108.988V77.9881H231.19H237.44V108.988V139.988H231.19H224.94V108.988ZM251.94 139.678C251.94 139.458 257.27 128.078 263.78 114.388C270.3 100.688 276.94 86.6081 278.53 83.0981C280.13 79.5781 283.53 72.3781 286.08 67.0981L290.71 57.4881L294.21 64.9881C296.14 69.1081 301.41 80.3681 305.93 89.9881C318.96 117.718 328.94 139.258 328.94 139.638C328.94 139.828 325.88 139.988 322.14 139.988H315.34L313.02 135.238C311.75 132.628 306.43 121.038 301.21 109.488C295.99 97.9381 291.39 88.1381 291 87.7181C290.61 87.2881 284.89 98.7681 278.29 113.218L266.29 139.488L259.12 139.778C255.17 139.948 251.94 139.898 251.94 139.678ZM108.94 99.9881V93.9881H123.44H137.94V99.9881V105.988H123.44H108.94V99.9881ZM207.74 70.1081C207.51 68.5081 207.51 65.5781 207.74 63.5881L208.16 59.9881H231.6H255.04L254.74 66.2381L254.44 72.4881L231.31 72.7581L208.17 73.0281L207.74 70.1081ZM0.879564 51.8781C-0.900436 48.5581 0.179564 35.4281 2.69956 29.7681C6.33956 21.5881 17.9496 10.9881 23.2696 10.9881C24.0396 10.9881 25.6296 13.2981 26.8096 16.1181C29.3096 22.1381 29.3996 22.9881 27.5896 22.9881C26.8496 22.9881 24.3296 24.3681 21.9996 26.0581C14.6496 31.3881 11.2096 42.5081 13.9996 51.9881C14.3496 53.1881 13.1996 53.5481 8.24956 53.7881C2.72956 54.0481 1.92956 53.8381 0.879564 51.8781ZM69.6896 53.3981C69.3696 53.0781 69.5796 51.4681 70.1496 49.8081C71.4096 46.1981 70.6296 37.1581 68.7796 33.8581C66.8696 30.4681 60.7296 23.9881 59.4296 23.9881C58.8196 23.9881 57.5096 23.3981 56.5196 22.6681C54.7996 21.4081 54.8396 21.0881 57.3096 15.6881C59.7696 10.2881 60.0196 10.0681 62.4896 11.0081C74.7196 15.6581 83.9596 29.8381 83.9296 43.8981C83.8996 53.6281 83.6396 53.9881 76.4896 53.9881C73.0696 53.9881 70.0096 53.7281 69.6896 53.3981ZM38.0896 14.8581C36.3596 10.9381 34.9396 6.88814 34.9396 5.85814C34.9396 0.518141 44.2796 -2.21186 47.3796 2.20814C48.2396 3.42814 48.9396 5.11814 48.9396 5.95814C48.9496 7.94814 42.7796 21.9881 41.9096 21.9881C41.5396 21.9881 39.8196 18.7781 38.0896 14.8581Z" fill="#808080"/>
</svg>
